<svg width="135" height="104" viewBox="0 0 135 104" fill="none" xmlns="http://www.w3.org/2000/svg">
<rect x="0.5" y="0.5" width="134" height="103" rx="11.5" fill="white" stroke="#F0F0F0"/>
<g clip-path="url(#clip0_19304_5374)">
<path d="M79.4316 38.7355C79.0651 33.9631 76.8431 30.9724 74.8828 28.3333C73.0677 25.8901 71.5 23.7802 71.5 20.6678C71.5 20.4178 71.36 20.1893 71.138 20.0747C70.9153 19.9595 70.6477 19.9784 70.4453 20.1255C67.5013 22.2321 65.0449 25.7827 64.1869 29.1704C63.5912 31.529 63.5124 34.1805 63.5013 35.9317C60.7826 35.351 60.1667 31.2842 60.1602 31.2399C60.1296 31.029 60.0007 30.8454 59.8132 30.7452C59.6237 30.6462 59.4011 30.6391 59.209 30.7341C59.0664 30.8031 55.7096 32.5087 55.5143 39.3188C55.5006 39.5454 55.5 39.7726 55.5 39.9998C55.5 46.6159 60.8834 51.999 67.5 51.999C67.5091 51.9996 67.5189 52.0009 67.5267 51.999C67.5293 51.999 67.5319 51.999 67.5351 51.999C74.1354 51.98 79.5 46.6042 79.5 39.9998C79.5 39.6671 79.4316 38.7355 79.4316 38.7355ZM67.5 50.6657C65.2942 50.6657 63.5 48.7544 63.5 46.405C63.5 46.3249 63.4994 46.2442 63.5052 46.1452C63.5319 45.1544 63.7201 44.478 63.9264 44.0282C64.3132 44.8589 65.0046 45.6225 66.1276 45.6225C66.4961 45.6225 66.7943 45.3243 66.7943 44.9559C66.7943 44.0067 66.8139 42.9117 67.0502 41.9235C67.2605 41.0472 67.7631 40.115 68.3998 39.3677C68.683 40.3377 69.2351 41.1227 69.7742 41.889C70.5457 42.9852 71.3432 44.1187 71.4832 46.0515C71.4916 46.166 71.5001 46.2813 71.5001 46.405C71.5 48.7544 69.7057 50.6657 67.5 50.6657Z" fill="#E23535"/>
</g>
<path d="M49.9658 78H51.627L46.9512 65.3174H45.3867L40.7109 78H42.3721L43.6465 74.3701H48.6914L49.9658 78ZM46.0986 67.3652H46.2393L48.2256 73.0254H44.1123L46.0986 67.3652ZM55.749 73.6846L59.5459 78H61.5059L56.9971 72.9902L61.3389 68.5254H59.502L55.749 72.4893H55.3359V68.5254H53.8242V78H55.3359V73.6846H55.749ZM72.7031 80.5049V76.7344H71.1914V68.5254H69.6797V76.7344H65.127V68.5254H63.6152V78H71.2793V80.5049H72.7031ZM76.2012 78L80.9209 70.9336H81.0615V78H82.5732V68.5254H81.0615L76.3418 75.5918H76.2012V68.5254H74.6895V78H76.2012ZM87.0996 78L91.8193 70.9336H91.96V78H93.4717V68.5254H91.96L87.2402 75.5918H87.0996V68.5254H85.5879V78H87.0996Z" fill="#E23535"/>
<defs>
<clipPath id="clip0_19304_5374">
<rect width="32" height="32" fill="white" transform="translate(51.5 20)"/>
</clipPath>
</defs>
</svg>
