<svg width="135" height="104" viewBox="0 0 135 104" fill="none" xmlns="http://www.w3.org/2000/svg">
<rect x="0.5" y="0.5" width="134" height="103" rx="11.5" fill="white" stroke="#F0F0F0"/>
<g clip-path="url(#clip0_19304_5363)">
<path d="M69.1691 35.7922C68.7236 35.3461 68.1241 35.0962 67.4995 35.0962C66.875 35.0962 66.2754 35.3461 65.8299 35.7922C65.8299 35.7922 64.5191 37.1281 64.1455 37.4287L65.2925 52.0001H69.7164L70.8633 37.4387C70.6471 37.3185 69.1691 35.7922 69.1691 35.7922Z" fill="#FF7010"/>
<path d="M60.8751 35.642C60.4503 35.2183 59.8856 34.9714 59.2916 34.9498C58.6976 34.9282 58.117 35.1333 57.6636 35.5251L55.3698 37.4889L57.5784 49.9496C57.6799 50.5224 57.9758 51.0407 58.4143 51.4137C58.8528 51.7868 59.406 51.9908 59.9772 51.9902H63.9817L62.8413 37.5122C62.5824 37.4121 60.8751 35.642 60.8751 35.642Z" fill="#FF7010"/>
<path d="M66.9702 22.6801C67.1394 22.7485 67.3191 22.7859 67.5011 22.7903C67.7288 22.796 67.9541 22.7411 68.1546 22.631C68.3552 22.5208 68.5241 22.3594 68.6448 22.1625C68.7947 21.9354 68.8745 21.6679 68.8742 21.3943C68.8734 21.1817 68.8251 20.972 68.7329 20.7812C68.6408 20.5904 68.5071 20.4236 68.3422 20.2933C68.1773 20.163 67.9854 20.0728 67.7811 20.0294C67.5769 19.986 67.3656 19.9907 67.1633 20.043C66.9611 20.0953 66.7732 20.1939 66.6139 20.3313C66.4547 20.4687 66.3283 20.6413 66.2443 20.836C66.1602 21.0306 66.1209 21.2422 66.1291 21.4547C66.1374 21.6672 66.193 21.875 66.2919 22.0623C66.4455 22.3384 66.6838 22.5554 66.9702 22.6801Z" fill="#FF7010"/>
<path d="M75.4085 28.5115L75.0349 28.4214L74.9432 28.0406C74.3566 25.7028 72.2691 23.8025 69.5656 23.1546C69.3205 23.4712 69.0054 23.7243 68.6461 23.8932C68.2867 24.0621 67.8933 24.142 67.4978 24.1264C66.4 24.1264 65.4923 23.208 65.4399 23.1445C62.7396 23.7924 60.6522 25.6727 60.0689 28.0239L59.9804 28.4214L59.6036 28.5216C58.0255 28.941 56.6649 29.9604 55.8013 31.3704C54.9378 32.7803 54.6367 34.4737 54.9601 36.1029L56.8181 34.5098C57.5202 33.9041 58.4186 33.5869 59.3379 33.6202C60.2572 33.6536 61.1313 34.0351 61.7893 34.6901L63.4278 36.3066L64.9287 34.8271C65.2652 34.4835 65.666 34.2125 66.1074 34.03C66.5488 33.8476 67.0216 33.7575 67.4978 33.765C68.4652 33.7713 69.3923 34.1605 70.0834 34.8504L71.5515 36.3133L73.226 34.6734C73.8848 34.0249 74.7565 33.6488 75.6719 33.6179C76.5873 33.587 77.4814 33.9037 78.1808 34.5064L80.0356 36.1029C80.3649 34.4743 80.0685 32.7791 79.2076 31.3667C78.3467 29.9543 76.9869 28.9324 75.4085 28.5115Z" fill="#FF7010"/>
<path d="M74.1338 35.6216C74.1338 35.6216 72.3708 37.405 72.1676 37.4852L71.0239 51.9898H75.035C75.6062 51.9904 76.1594 51.7864 76.5979 51.4134C77.0364 51.0403 77.3323 50.5221 77.4337 49.9492L78.5315 43.7573L79.6228 37.4885L77.3289 35.5147C76.8774 35.1271 76.3012 34.9235 75.7112 34.9432C75.1212 34.9629 74.5593 35.2046 74.1338 35.6216Z" fill="#FF7010"/>
</g>
<path d="M33.2578 73.333L33.6709 66.7412H38.5225V76.5762H32.3701V76.4707C32.9941 75.7236 33.1699 74.7656 33.2578 73.333ZM30.9375 78H40.2188V80.5049H41.6865V76.5762H40.1045V65.3174H32.2559L31.7725 73.2979C31.6758 74.959 31.333 76.084 30.4102 76.5762H29.4697V80.5049H30.9375V78ZM47.5928 69.6943C49.0957 69.6943 50.0977 70.8018 50.1328 72.4805H44.9121C45.0264 70.8018 46.0811 69.6943 47.5928 69.6943ZM50.0889 75.5479C49.6934 76.3828 48.8672 76.8311 47.6455 76.8311C46.0371 76.8311 44.9912 75.6445 44.9121 73.7725V73.7021H51.7236V73.1221C51.7236 70.1777 50.168 68.3584 47.6104 68.3584C45.0088 68.3584 43.3389 70.292 43.3389 73.2715C43.3389 76.2686 44.9824 78.167 47.6104 78.167C49.6846 78.167 51.1436 77.1738 51.6006 75.5479H50.0889ZM62.1123 71.4258C61.8486 69.7383 60.4424 68.3584 58.1396 68.3584C55.4854 68.3584 53.7979 70.2744 53.7979 73.2275C53.7979 76.2422 55.4941 78.167 58.1484 78.167C60.4248 78.167 61.8398 76.8838 62.1123 75.1436H60.583C60.3018 76.2158 59.4141 76.8047 58.1396 76.8047C56.4521 76.8047 55.3623 75.416 55.3623 73.2275C55.3623 71.083 56.4346 69.7207 58.1396 69.7207C59.502 69.7207 60.3369 70.4854 60.583 71.4258H62.1123ZM68.2998 69.6943C69.8027 69.6943 70.8047 70.8018 70.8398 72.4805H65.6191C65.7334 70.8018 66.7881 69.6943 68.2998 69.6943ZM70.7959 75.5479C70.4004 76.3828 69.5742 76.8311 68.3525 76.8311C66.7441 76.8311 65.6982 75.6445 65.6191 73.7725V73.7021H72.4307V73.1221C72.4307 70.1777 70.875 68.3584 68.3174 68.3584C65.7158 68.3584 64.0459 70.292 64.0459 73.2715C64.0459 76.2686 65.6895 78.167 68.3174 78.167C70.3916 78.167 71.8506 77.1738 72.3076 75.5479H70.7959ZM79.585 68.3584C78.293 68.3584 77.1592 69.0176 76.5527 70.1074H76.4121V68.5254H74.9707V81.1641H76.4824V76.5762H76.623C77.1416 77.5781 78.2314 78.167 79.585 78.167C81.9932 78.167 83.5664 76.2246 83.5664 73.2627C83.5664 70.2832 82.002 68.3584 79.585 68.3584ZM79.2246 76.8047C77.5195 76.8047 76.4385 75.4336 76.4385 73.2627C76.4385 71.083 77.5195 69.7207 79.2334 69.7207C80.9648 69.7207 82.002 71.0479 82.002 73.2627C82.002 75.4775 80.9648 76.8047 79.2246 76.8047ZM92.3643 68.5254H84.7002V69.791H87.7764V78H89.2881V69.791H92.3643V68.5254ZM102.858 78H104.37V68.5254H102.858V78ZM97.9541 72.832C99.1934 72.832 100.002 73.5967 100.002 74.7832C100.002 75.9609 99.2021 76.7344 97.9541 76.7344H96.082V72.832H97.9541ZM94.5703 78H97.9541C100.125 78 101.514 76.752 101.514 74.7832C101.514 72.8145 100.125 71.5664 97.9541 71.5664H96.082V68.5254H94.5703V78Z" fill="#191919"/>
<defs>
<clipPath id="clip0_19304_5363">
<rect width="32" height="32" fill="white" transform="translate(51.5 20)"/>
</clipPath>
</defs>
</svg>
