<svg width="135" height="104" viewBox="0 0 135 104" fill="none" xmlns="http://www.w3.org/2000/svg">
<rect x="0.5" y="0.5" width="134" height="103" rx="11.5" fill="white" stroke="#F0F0F0"/>
<g clip-path="url(#clip0_19304_5392)">
<mask id="mask0_19304_5392" style="mask-type:alpha" maskUnits="userSpaceOnUse" x="51" y="20" width="17" height="32">
<rect x="51.5" y="20" width="16.4" height="32" fill="#C4C4C4"/>
</mask>
<g mask="url(#mask0_19304_5392)">
<path d="M64.8399 48.8447C64.5891 48.8447 64.3367 48.812 64.0883 48.7454C63.2508 48.5209 62.5641 47.9391 62.2043 47.1491C61.9047 46.4907 61.2184 46.0962 60.5016 46.165C59.636 46.2467 58.7914 45.9439 58.1785 45.3302C57.5653 44.7163 57.2617 43.8689 57.3449 43.005C57.3591 42.8581 57.3492 42.7138 57.3264 42.5728L53.9606 44.5179C56.6961 48.8587 61.4533 51.7977 66.9 52V48.1057C66.7666 48.1564 66.6368 48.22 66.5168 48.3057C66.0203 48.6603 65.4348 48.8447 64.8399 48.8447Z" fill="#FF7010"/>
<path d="M64.3988 24.4149C63.9085 24.5465 63.507 24.8868 63.2964 25.3492C62.7847 26.4739 61.6085 27.1503 60.3867 27.0308C59.8808 26.9822 59.3859 27.1599 59.0273 27.5192C58.6683 27.8783 58.4906 28.3743 58.5394 28.8799C58.5783 29.2843 58.524 29.6796 58.4036 30.0499L66.9 34.96V25.1395C66.5194 25.0588 66.1502 24.9083 65.8199 24.6724C65.407 24.3772 64.8886 24.2839 64.3988 24.4149ZM64.5669 30.9151C63.6613 31.4385 62.5032 31.1279 61.9803 30.2214C61.4575 29.3149 61.7677 28.1557 62.6734 27.6323C63.5791 27.1089 64.7371 27.4195 65.26 28.326C65.7829 29.2326 65.4726 30.3917 64.5669 30.9151Z" fill="#FF7010"/>
<path d="M56.3617 41.3005C55.5727 40.941 54.9914 40.2539 54.7668 39.4156C54.5422 38.5771 54.7023 37.6909 55.2063 36.9843C55.6258 36.3957 55.6258 35.6047 55.2063 35.0163C54.7023 34.3095 54.5422 33.4233 54.7668 32.5848C54.9914 31.7465 55.5727 31.0594 56.3617 30.6997C56.4959 30.6385 56.6158 30.5578 56.7264 30.4676L53.358 28.521C52.1739 30.7551 51.5 33.2999 51.5 36.0002C51.5 38.7005 52.1739 41.2453 53.358 43.4794L56.7265 41.5328C56.6159 41.4425 56.4959 41.3618 56.3617 41.3005Z" fill="#FF7010"/>
<path d="M55.9258 39.1043C56.0571 39.5948 56.3973 39.9969 56.8594 40.2073C57.2287 40.3758 57.5435 40.6205 57.8037 40.91L66.3002 36L57.8037 31.0898C57.5435 31.3793 57.2287 31.624 56.8594 31.7924C56.3973 32.003 56.0571 32.4051 55.9258 32.8956C55.7946 33.3861 55.8883 33.9048 56.1829 34.3183C56.9004 35.3241 56.9004 36.6758 56.1829 37.6818C55.8883 38.0951 55.7946 38.6138 55.9258 39.1043ZM59.7405 34.1046C60.7862 34.1046 61.634 34.9532 61.634 36C61.634 37.0467 60.7862 37.8953 59.7405 37.8953C58.6947 37.8953 57.8469 37.0467 57.8469 36C57.8469 34.9532 58.6947 34.1046 59.7405 34.1046Z" fill="#FF7010"/>
<path d="M53.9606 27.4822L57.3264 29.4273C57.3492 29.2862 57.3591 29.1418 57.3449 28.9949C57.2617 28.1312 57.5653 27.2837 58.1785 26.6698C58.7918 26.056 59.6371 25.7524 60.502 25.8351C61.2172 25.9056 61.9051 25.509 62.2043 24.8513C62.5641 24.0611 63.2508 23.4793 64.0883 23.2547C64.9262 23.0301 65.811 23.1902 66.5168 23.6944C66.6368 23.78 66.7666 23.8436 66.9 23.8944V20C61.4533 20.2023 56.6961 23.1414 53.9606 27.4822Z" fill="#FF7010"/>
<path d="M58.5394 43.12C58.4906 43.6257 58.6683 44.1217 59.0273 44.4808C59.3859 44.84 59.8851 45.0163 60.3863 44.9692C61.6191 44.8495 62.7851 45.5267 63.2964 46.6509C63.507 47.113 63.9085 47.4536 64.3988 47.5851C64.8882 47.7165 65.407 47.6229 65.8199 47.3277C66.1502 47.0918 66.5194 46.9412 66.9 46.8604V37.04L58.4036 41.9501C58.524 42.3203 58.5783 42.7156 58.5394 43.12ZM61.9803 41.7786C62.5032 40.8721 63.6613 40.5615 64.5669 41.0849C65.4726 41.6083 65.7829 42.7675 65.26 43.674C64.7371 44.5805 63.5791 44.8911 62.6734 44.3677C61.7677 43.8443 61.4575 42.6852 61.9803 41.7786Z" fill="#FF7010"/>
</g>
<path d="M81.4174 46.2613C80.7074 44.896 80.63 43.292 81.2074 41.8607C81.8347 40.3027 82.1667 38.506 82.1667 36.6667C82.1667 33.522 81.2894 31.5913 80.44 29.724C79.6807 28.0533 78.968 26.4567 78.856 23.9953C79.2134 23.9827 79.5 23.6933 79.5 23.3333C79.5 22.9653 79.202 22.6667 78.8334 22.6667V20.6667C78.8334 20.2987 78.5354 20 78.1667 20H72.8334C72.4647 20 72.1667 20.2987 72.1667 20.6667V22.6667C71.798 22.6667 71.5 22.9653 71.5 23.3333C71.5 23.6933 71.7867 23.9827 72.144 23.9953C72.032 26.4567 71.3194 28.054 70.56 29.724C69.7114 31.5913 68.8334 33.522 68.8334 36.6667C68.8334 38.506 69.1654 40.3027 69.7927 41.8613C70.3694 43.2933 70.2927 44.8973 69.5827 46.262C69.0927 47.2033 68.8334 48.2653 68.8334 49.3333C68.8334 50.0827 68.9634 50.83 69.22 51.5553C69.314 51.822 69.566 52 69.848 52H81.1507C81.4334 52 81.6847 51.822 81.7787 51.556C82.0367 50.8313 82.1667 50.0833 82.1667 49.3333C82.1667 48.2653 81.908 47.2033 81.4174 46.2613C81.4174 46.262 81.4174 46.262 81.4174 46.2613ZM77.514 24C77.5334 24.4747 77.58 24.9113 77.6374 25.3333H73.3634C73.4207 24.9113 73.4674 24.4747 73.4867 24H77.514ZM79.9654 32C80.1294 32.424 80.2774 32.8653 80.4047 33.3333H70.5954C70.7227 32.8653 70.8707 32.424 71.0347 32H79.9654ZM80.4074 40C80.2874 40.46 80.15 40.9087 79.9807 41.3333H71.02C70.8507 40.9087 70.7134 40.46 70.5934 40H80.4074Z" fill="#FF7010"/>
</g>
<path d="M41.6084 70.8896V65.3174H40.0264V78H41.6084V72.1553H41.9775L47.708 78H49.7998L43.3398 71.4258L49.29 65.3174H47.3037L41.9775 70.8896H41.6084ZM55.0117 78.167C57.71 78.167 59.3799 76.3037 59.3799 73.2627C59.3799 70.2129 57.71 68.3584 55.0117 68.3584C52.3135 68.3584 50.6436 70.2129 50.6436 73.2627C50.6436 76.3037 52.3135 78.167 55.0117 78.167ZM55.0117 76.8047C53.2188 76.8047 52.208 75.5039 52.208 73.2627C52.208 71.0127 53.2188 69.7207 55.0117 69.7207C56.8047 69.7207 57.8154 71.0127 57.8154 73.2627C57.8154 75.5039 56.8047 76.8047 55.0117 76.8047ZM63.4316 78V71.2588H63.5986L66.5957 77.7363H67.7734L70.7705 71.2588H70.9375V78H72.458V68.5254H70.6914L67.29 75.873H67.1494L63.7568 68.5254H61.9199V78H63.4316ZM79.4189 76.8047C77.5996 76.8047 76.5713 75.5391 76.5713 73.3506C76.5713 71.2676 77.5996 70.0723 79.4189 70.0723C81.2383 70.0723 82.2666 71.2676 82.2666 73.3506C82.2666 75.5391 81.2383 76.8047 79.4189 76.8047ZM76.2988 70.4678C76.5889 68.1299 77.3184 66.7852 79.8408 66.6709L80.8076 66.627C82.6709 66.5479 83.207 66.0645 83.207 66.0645V64.7109C83.1982 64.7197 82.2227 65.1504 80.7373 65.2207L79.7881 65.2646C76.0176 65.4316 75.0068 68.0859 75.0068 72.4453C75.0068 76.3301 76.6152 78.167 79.4189 78.167C82.1436 78.167 83.8311 76.3389 83.8311 73.3506C83.8311 70.459 82.1436 68.7188 79.6475 68.7188C78.0566 68.7188 77.0107 69.4658 76.4395 70.4678H76.2988ZM90.2734 78.167C92.9717 78.167 94.6416 76.3037 94.6416 73.2627C94.6416 70.2129 92.9717 68.3584 90.2734 68.3584C87.5752 68.3584 85.9053 70.2129 85.9053 73.2627C85.9053 76.3037 87.5752 78.167 90.2734 78.167ZM90.2734 76.8047C88.4805 76.8047 87.4697 75.5039 87.4697 73.2627C87.4697 71.0127 88.4805 69.7207 90.2734 69.7207C92.0664 69.7207 93.0771 71.0127 93.0771 73.2627C93.0771 75.5039 92.0664 76.8047 90.2734 76.8047Z" fill="#191919"/>
<defs>
<clipPath id="clip0_19304_5392">
<rect width="32" height="32" fill="white" transform="translate(51.5 20)"/>
</clipPath>
</defs>
</svg>
