<svg width="135" height="104" viewBox="0 0 135 104" fill="none" xmlns="http://www.w3.org/2000/svg">
<rect x="0.5" y="0.5" width="134" height="103" rx="11.5" fill="white" stroke="#F0F0F0"/>
<path d="M68.6053 26.5133V23.6814L74.5987 22.2569C75.149 22.1261 75.4814 21.5654 75.332 21.0199L75.3069 20.9282C75.1649 20.4099 74.6388 20.0965 74.1154 20.2184L67.1678 21.8375C66.7151 21.943 66.3948 22.3466 66.3948 22.8114V26.5133H59.1667C58.6144 26.5133 58.1667 26.961 58.1667 27.5133V31.115H76.8334V27.5133C76.8334 26.961 76.3856 26.5133 75.8334 26.5133H68.6053Z" fill="#FF7010"/>
<path d="M58.2527 32.8848L60.7948 50.1591C60.9422 51.2211 61.9001 51.9998 62.9685 51.9998H71.9211C73.0264 51.9998 73.9474 51.2211 74.0948 50.1591L76.6369 32.8848H58.2527Z" fill="#FF7010"/>
<path d="M41.8447 78V65.3174H40.2627V70.8018H33.3018V65.3174H31.7197V78H33.3018V72.2256H40.2627V78H41.8447ZM47.9795 76.8398C46.8809 76.8398 46.0635 76.2773 46.0635 75.3105C46.0635 74.3613 46.6963 73.8604 48.1377 73.7637L50.6865 73.5967V74.4668C50.6865 75.8203 49.5352 76.8398 47.9795 76.8398ZM47.6982 78.167C48.9639 78.167 50.001 77.6133 50.6162 76.6025H50.7568V78H52.1982V71.5137C52.1982 69.5449 50.9062 68.3584 48.5947 68.3584C46.5732 68.3584 45.0791 69.3604 44.877 70.8809H46.4062C46.6172 70.1338 47.4082 69.7031 48.542 69.7031C49.957 69.7031 50.6865 70.3447 50.6865 71.5137V72.375L47.9531 72.542C45.7471 72.6738 44.499 73.6494 44.499 75.3457C44.499 77.0771 45.8613 78.167 47.6982 78.167ZM61.3125 78H62.8242V68.5254H55.1602V78H56.6719V69.791H61.3125V78ZM67.3418 78L72.0615 70.9336H72.2021V78H73.7139V68.5254H72.2021L67.4824 75.5918H67.3418V68.5254H65.8301V78H67.3418ZM83.5928 68.5254H75.9287V69.791H79.0049V78H80.5166V69.791H83.5928V68.5254ZM87.7236 73.6846L91.5205 78H93.4805L88.9717 72.9902L93.3135 68.5254H91.4766L87.7236 72.4893H87.3105V68.5254H85.7988V78H87.3105V73.6846H87.7236ZM97.1016 78L101.821 70.9336H101.962V78H103.474V68.5254H101.962L97.2422 75.5918H97.1016V68.5254H95.5898V78H97.1016Z" fill="#191919"/>
</svg>
