<svg width="135" height="104" viewBox="0 0 135 104" fill="none" xmlns="http://www.w3.org/2000/svg">
<rect x="0.5" y="0.5" width="134" height="103" rx="11.5" fill="white" stroke="#F0F0F0"/>
<g clip-path="url(#clip0_19304_5330)">
<path d="M77.6551 43.0051C77.7383 43.8688 77.4347 44.7163 76.8215 45.3302C76.2082 45.944 75.3629 46.2475 74.498 46.165C73.7804 46.0956 73.0949 46.4909 72.7957 47.1487C72.4359 47.9389 71.7492 48.5207 70.9117 48.7453C70.0734 48.9698 69.1886 48.8099 68.4832 48.3057C68.3632 48.22 68.2334 48.1564 68.1 48.1056V52C73.5467 51.7977 78.3039 48.8586 81.0394 44.5178L77.6736 42.5728C77.6508 42.7138 77.6409 42.8582 77.6551 43.0051Z" fill="#FF7010"/>
<path d="M64.8399 48.8447C64.5891 48.8447 64.3367 48.812 64.0883 48.7454C63.2508 48.5209 62.5641 47.9391 62.2043 47.1491C61.9047 46.4907 61.2184 46.0962 60.5016 46.165C59.636 46.2467 58.7914 45.9439 58.1785 45.3302C57.5653 44.7163 57.2617 43.8689 57.3449 43.005C57.3591 42.8581 57.3492 42.7138 57.3264 42.5728L53.9606 44.5179C56.6961 48.8587 61.4533 51.7977 66.9 52V48.1057C66.7666 48.1564 66.6368 48.22 66.5168 48.3057C66.0203 48.6603 65.4348 48.8447 64.8399 48.8447Z" fill="#FF7010"/>
<path d="M64.3988 24.4149C63.9086 24.5465 63.507 24.8868 63.2965 25.3492C62.7848 26.4739 61.6086 27.1503 60.3867 27.0308C59.8809 26.9822 59.3859 27.1599 59.0274 27.5192C58.6684 27.8783 58.4906 28.3743 58.5395 28.8799C58.5784 29.2843 58.524 29.6796 58.4036 30.0499L66.9 34.96V25.1395C66.5194 25.0588 66.1503 24.9083 65.8199 24.6724C65.407 24.3772 64.8887 24.2839 64.3988 24.4149ZM64.567 30.9151C63.6613 31.4385 62.5032 31.1279 61.9804 30.2214C61.4575 29.3149 61.7678 28.1557 62.6734 27.6323C63.5791 27.1089 64.7372 27.4195 65.2601 28.326C65.7829 29.2326 65.4726 30.3917 64.567 30.9151Z" fill="#FF7010"/>
<path d="M56.3617 41.3005C55.5727 40.941 54.9914 40.2539 54.7668 39.4156C54.5422 38.5771 54.7023 37.6909 55.2063 36.9843C55.6258 36.3957 55.6258 35.6047 55.2063 35.0163C54.7023 34.3095 54.5422 33.4233 54.7668 32.5848C54.9914 31.7465 55.5727 31.0594 56.3617 30.6997C56.4959 30.6385 56.6158 30.5578 56.7264 30.4676L53.358 28.521C52.1739 30.7551 51.5 33.2999 51.5 36.0002C51.5 38.7005 52.1739 41.2453 53.358 43.4794L56.7265 41.5328C56.6159 41.4425 56.4959 41.3618 56.3617 41.3005Z" fill="#FF7010"/>
<path d="M70.9117 23.2547C71.7492 23.4791 72.4359 24.0609 72.7957 24.8509C73.0949 25.5094 73.7804 25.9047 74.4984 25.8351C75.3613 25.752 76.2086 26.0562 76.8215 26.6698C77.4347 27.2837 77.7383 28.1312 77.6551 28.9951C77.6409 29.142 77.6508 29.2863 77.6736 29.4273L81.0394 27.4822C78.3039 23.1414 73.5467 20.2023 68.1 20V23.8944C68.2334 23.8436 68.3632 23.78 68.4832 23.6944C69.1886 23.1902 70.0734 23.0297 70.9117 23.2547Z" fill="#FF7010"/>
<path d="M55.9258 39.1043C56.057 39.5948 56.3973 39.9969 56.8594 40.2073C57.2287 40.3758 57.5435 40.6205 57.8037 40.91L66.3001 36L57.8036 31.0898C57.5435 31.3793 57.2286 31.624 56.8594 31.7924C56.3973 32.003 56.057 32.4051 55.9258 32.8956C55.7945 33.3861 55.8883 33.9048 56.1828 34.3183C56.9004 35.3241 56.9004 36.6758 56.1828 37.6818C55.8883 38.0951 55.7945 38.6138 55.9258 39.1043ZM59.7404 34.1046C60.7862 34.1046 61.6339 34.9532 61.6339 36C61.6339 37.0467 60.7862 37.8953 59.7404 37.8953C58.6946 37.8953 57.8469 37.0467 57.8469 36C57.8469 34.9532 58.6946 34.1046 59.7404 34.1046Z" fill="#FF7010"/>
<path d="M53.9606 27.4822L57.3264 29.4273C57.3492 29.2862 57.3591 29.1418 57.3449 28.9949C57.2617 28.1312 57.5653 27.2837 58.1785 26.6698C58.7918 26.056 59.6371 25.7524 60.502 25.8351C61.2172 25.9056 61.9051 25.509 62.2043 24.8513C62.5641 24.0611 63.2508 23.4793 64.0883 23.2547C64.9262 23.0301 65.811 23.1902 66.5168 23.6944C66.6368 23.78 66.7666 23.8436 66.9 23.8944V20C61.4533 20.2023 56.6961 23.1414 53.9606 27.4822Z" fill="#FF7010"/>
<path d="M81.642 28.521L78.2736 30.4676C78.3842 30.5579 78.5041 30.6386 78.6383 30.6998C79.4274 31.0594 80.0086 31.7465 80.2332 32.5848C80.4578 33.4233 80.2977 34.3095 79.7938 35.0161C79.3742 35.6047 79.3742 36.3957 79.7938 36.9841C80.2977 37.6909 80.4578 38.5771 80.2332 39.4156C80.0086 40.2539 79.4274 40.941 78.6383 41.3007C78.5041 41.3619 78.3842 41.4426 78.2737 41.5328L81.642 43.4794C82.8261 41.2453 83.5 38.7005 83.5 36.0002C83.5 33.2999 82.8261 30.7551 81.642 28.521Z" fill="#FF7010"/>
<path d="M58.5395 43.12C58.4906 43.6257 58.6684 44.1217 59.0274 44.4808C59.3859 44.84 59.8852 45.0163 60.3863 44.9692C61.6192 44.8495 62.7852 45.5267 63.2965 46.6509C63.507 47.113 63.9086 47.4536 64.3988 47.5851C64.8883 47.7165 65.407 47.6229 65.8199 47.3277C66.1503 47.0918 66.5194 46.9412 66.9 46.8604V37.04L58.4036 41.9501C58.524 42.3203 58.5784 42.7156 58.5395 43.12ZM61.9804 41.7786C62.5032 40.8721 63.6613 40.5615 64.567 41.0849C65.4726 41.6083 65.7829 42.7675 65.2601 43.674C64.7372 44.5805 63.5791 44.8911 62.6734 44.3677C61.7678 43.8443 61.4575 42.6852 61.9804 41.7786Z" fill="#FF7010"/>
<path d="M70.6011 47.5851C71.0914 47.4536 71.4929 47.1132 71.7035 46.6509C72.2152 45.5264 73.3914 44.8517 74.6133 44.9692C75.1176 45.0159 75.614 44.8398 75.9726 44.4808C76.3316 44.1217 76.5093 43.6257 76.4605 43.1202C76.4216 42.7157 76.476 42.3204 76.5964 41.9501L68.1 37.04V46.8604C68.4805 46.9412 68.8497 47.0917 69.1801 47.3277C69.5933 47.6231 70.1121 47.7167 70.6011 47.5851ZM70.433 41.0849C71.3386 40.5615 72.4968 40.8721 73.0196 41.7786C73.5425 42.6851 73.2322 43.8443 72.3265 44.3677C71.4209 44.8911 70.2628 44.5805 69.7399 43.674C69.2171 42.7675 69.5274 41.6083 70.433 41.0849Z" fill="#FF7010"/>
<path d="M79.0742 32.8956C78.9429 32.4051 78.6027 32.003 78.1406 31.7926C77.7713 31.6241 77.4565 31.3794 77.1963 31.0898L68.6998 35.9999L77.1964 40.91C77.4565 40.6206 77.7713 40.3759 78.1406 40.2074C78.6027 39.9969 78.9429 39.5948 79.0742 39.1042C79.2054 38.6137 79.1117 38.0951 78.8172 37.6816C78.0996 36.6758 78.0996 35.3241 78.8172 34.3181C79.1117 33.9048 79.2054 33.3861 79.0742 32.8956ZM75.2595 37.8952C74.2138 37.8952 73.366 37.0467 73.366 35.9999C73.366 34.9532 74.2138 34.1046 75.2595 34.1046C76.3053 34.1046 77.1531 34.9532 77.1531 35.9999C77.1531 37.0467 76.3053 37.8952 75.2595 37.8952Z" fill="#FF7010"/>
<path d="M76.4605 28.8802C76.5093 28.3744 76.3316 27.8784 75.9726 27.5193C75.614 27.1602 75.1144 26.9826 74.6136 27.0309C73.3812 27.1492 72.2148 26.4736 71.7035 25.3493C71.4929 24.8871 71.0914 24.5465 70.6011 24.415C70.1117 24.2838 69.5933 24.3772 69.1801 24.6724C68.8497 24.9084 68.4805 25.0589 68.1 25.1396V34.9601L76.5964 30.05C76.476 29.6798 76.4216 29.2845 76.4605 28.8802ZM73.0196 30.2215C72.4968 31.128 71.3386 31.4386 70.433 30.9152C69.5274 30.3918 69.2171 29.2327 69.7399 28.3261C70.2628 27.4196 71.4209 27.109 72.3265 27.6324C73.2322 28.1558 73.5425 29.3149 73.0196 30.2215Z" fill="#FF7010"/>
</g>
<path d="M50.8887 78V65.3174H40.9482V78H42.5391V66.7588H49.3242V78H50.8887ZM55.6172 78L60.3369 70.9336H60.4775V78H61.9893V68.5254H60.4775L55.7578 75.5918H55.6172V68.5254H54.1055V78H55.6172ZM74.0918 80.5049V76.7344H72.5801V68.5254H71.0684V76.7344H66.5156V68.5254H65.0039V78H72.668V80.5049H74.0918ZM85.166 80.5049V76.7344H83.6543V68.5254H82.1426V76.7344H77.5898V68.5254H76.0781V78H83.7422V80.5049H85.166ZM90.0791 76.8398C88.9805 76.8398 88.1631 76.2773 88.1631 75.3105C88.1631 74.3613 88.7959 73.8604 90.2373 73.7637L92.7861 73.5967V74.4668C92.7861 75.8203 91.6348 76.8398 90.0791 76.8398ZM89.7979 78.167C91.0635 78.167 92.1006 77.6133 92.7158 76.6025H92.8564V78H94.2979V71.5137C94.2979 69.5449 93.0059 68.3584 90.6943 68.3584C88.6729 68.3584 87.1787 69.3604 86.9766 70.8809H88.5059C88.7168 70.1338 89.5078 69.7031 90.6416 69.7031C92.0566 69.7031 92.7861 70.3447 92.7861 71.5137V72.375L90.0527 72.542C87.8467 72.6738 86.5986 73.6494 86.5986 75.3457C86.5986 77.0771 87.9609 78.167 89.7979 78.167Z" fill="#191919"/>
<defs>
<clipPath id="clip0_19304_5330">
<rect width="32" height="32" fill="white" transform="translate(51.5 20)"/>
</clipPath>
</defs>
</svg>
