<svg width="135" height="104" viewBox="0 0 135 104" fill="none" xmlns="http://www.w3.org/2000/svg">
<rect x="0.5" y="0.5" width="134" height="103" rx="11.5" fill="white" stroke="#F0F0F0"/>
<g clip-path="url(#clip0_19304_5416)">
<path d="M83.4807 30.4214C83.4487 27.9779 81.4575 26 79.0144 26C76.8318 26 75.011 27.5791 74.6245 29.6583C73.8572 29.999 72.5244 30.5437 71.7302 30.6763C70.7727 30.836 69.6155 30.884 68.2908 30.8187C65.7605 30.694 63.2344 29.8673 60.9853 28.4275C58.1553 26.6159 55.7449 26.192 53.1697 27.0529C52.1709 27.3869 51.5 28.3296 51.5 29.3993C51.5 29.7458 51.6877 30.0648 51.9895 30.2306C52.3345 30.4199 52.657 30.5836 52.969 30.7416C54.6592 31.5981 55.5903 32.0698 56.2073 34.6696C56.6682 36.6108 57.4746 38.2379 58.6045 39.5055C59.084 40.0436 59.623 40.5183 60.2165 40.9269H73.0471C74.9853 39.4666 76.1719 37.2513 76.498 34.4583C76.6938 32.7816 76.5293 31.3198 76.4145 30.5994C76.4194 30.5607 76.4226 30.5215 76.4226 30.4813C76.4226 29.054 77.5852 27.8929 79.0144 27.8929C80.4433 27.8929 81.6062 29.054 81.6062 30.4813C81.6062 30.5264 81.6094 30.5715 81.6157 30.6161C81.6169 30.6255 81.7204 31.564 81.1423 32.2376C80.6684 32.7897 79.8313 33.0697 78.6543 33.0697C78.1365 33.0697 77.7168 33.4934 77.7168 34.0162C77.7168 34.5387 78.1365 34.9626 78.6543 34.9626C80.3996 34.9626 81.7136 34.4628 82.5593 33.4769C83.5967 32.2682 83.5205 30.7988 83.4807 30.4214Z" fill="#FF7010"/>
<path d="M60.2217 42.8193C60.1694 43.0232 60.1418 43.2369 60.1418 43.4567V45.0533C60.1418 45.5758 60.5615 45.9998 61.0791 45.9998H72.2441C72.7617 45.9998 73.1816 45.5758 73.1816 45.0533V43.4567C73.1816 43.2369 73.1538 43.0232 73.1016 42.8193H60.2217Z" fill="#FF7010"/>
</g>
<path d="M46.2217 78.2988C48.9199 78.2988 50.9238 76.7959 51.3457 74.4668H49.7373C49.333 75.9346 47.9883 76.8398 46.2217 76.8398C43.7783 76.8398 42.249 74.8447 42.249 71.6631C42.249 68.4814 43.7783 66.4775 46.2129 66.4775C47.9619 66.4775 49.3154 67.5059 49.7373 69.1406H51.3457C50.9678 66.6973 48.8848 65.0186 46.2129 65.0186C42.7676 65.0186 40.623 67.5674 40.623 71.6631C40.623 75.75 42.7764 78.2988 46.2217 78.2988ZM57.876 78.167C60.5742 78.167 62.2441 76.3037 62.2441 73.2627C62.2441 70.2129 60.5742 68.3584 57.876 68.3584C55.1777 68.3584 53.5078 70.2129 53.5078 73.2627C53.5078 76.3037 55.1777 78.167 57.876 78.167ZM57.876 76.8047C56.083 76.8047 55.0723 75.5039 55.0723 73.2627C55.0723 71.0127 56.083 69.7207 57.876 69.7207C59.6689 69.7207 60.6797 71.0127 60.6797 73.2627C60.6797 75.5039 59.6689 76.8047 57.876 76.8047ZM65.25 81.4277C66.9287 81.4277 67.6846 80.7773 68.4932 78.5801L72.1934 68.5254H70.585L67.9922 76.3213H67.8516L65.25 68.5254H63.6152L67.1221 78.0088L66.9463 78.5713C66.5508 79.7139 66.0762 80.127 65.2061 80.127C64.9951 80.127 64.7578 80.1182 64.5732 80.083V81.375C64.7842 81.4102 65.0479 81.4277 65.25 81.4277ZM81.8789 71.4258C81.6152 69.7383 80.209 68.3584 77.9062 68.3584C75.252 68.3584 73.5645 70.2744 73.5645 73.2275C73.5645 76.2422 75.2607 78.167 77.915 78.167C80.1914 78.167 81.6064 76.8838 81.8789 75.1436H80.3496C80.0684 76.2158 79.1807 76.8047 77.9062 76.8047C76.2188 76.8047 75.1289 75.416 75.1289 73.2275C75.1289 71.083 76.2012 69.7207 77.9062 69.7207C79.2686 69.7207 80.1035 70.4854 80.3496 71.4258H81.8789ZM92.5664 78H94.0781V68.5254H92.5664V78ZM87.6621 72.832C88.9014 72.832 89.71 73.5967 89.71 74.7832C89.71 75.9609 88.9102 76.7344 87.6621 76.7344H85.79V72.832H87.6621ZM84.2783 78H87.6621C89.833 78 91.2217 76.752 91.2217 74.7832C91.2217 72.8145 89.833 71.5664 87.6621 71.5664H85.79V68.5254H84.2783V78Z" fill="#191919"/>
<defs>
<clipPath id="clip0_19304_5416">
<rect width="32" height="32" fill="white" transform="translate(51.5 20)"/>
</clipPath>
</defs>
</svg>
