<svg width="135" height="104" viewBox="0 0 135 104" fill="none" xmlns="http://www.w3.org/2000/svg">
<rect x="0.5" y="0.5" width="134" height="103" rx="11.5" fill="white" stroke="#F0F0F0"/>
<g clip-path="url(#clip0_19304_5381)">
<path d="M70.9592 39.3818C66.7035 39.3818 62.6928 40.0078 59.3607 41.1921C58.5382 41.4844 57.682 41.6328 56.816 41.6327C55.7481 41.6327 54.7134 41.4049 53.7689 40.9854C54.5447 43.87 57.1871 46 60.3192 46H75.8109C78.975 46 81.6398 43.8261 82.3847 40.8964C82.0829 40.8954 81.7828 40.8536 81.4925 40.7714C78.2797 39.8624 74.6373 39.3818 70.9592 39.3818Z" fill="#FF7010"/>
<path d="M61.5413 38.2524C62.8704 37.929 64.26 37.6777 65.6871 37.5004C62.9049 34.4597 62.6457 29.3412 65.1837 26C63.1402 26.0629 61.1451 26.3969 59.2875 26.9744C58.3358 27.8861 57.6604 29.0605 57.3597 30.3514C56.5468 33.5583 58.4434 37.1184 61.5413 38.2524Z" fill="#FF7010"/>
<path d="M58.6039 39.1221C55.8217 37.0409 54.3729 33.4435 55.2093 29.8527C55.3149 29.3996 55.4571 28.9581 55.6298 28.5303C54.8926 28.9417 54.1966 29.3995 53.5508 29.9016C49.5424 32.9999 51.8248 39.4418 56.816 39.4297C57.4101 39.4297 58.0137 39.3298 58.6039 39.1221Z" fill="#FF7010"/>
<path d="M77.4456 29.2261C76.4726 29.7045 75.688 30.4897 75.2114 31.4733C74.41 33.127 74.6105 35.0496 75.6766 36.487C75.8414 36.7092 76.4471 37.3774 76.5034 37.529C78.4269 37.774 80.3099 38.147 82.095 38.6521C82.4659 38.7571 82.8652 38.6612 83.1477 38.3991C83.4303 38.137 83.5551 37.7466 83.4772 37.3696C82.8028 34.1095 80.5905 31.259 77.4456 29.2261Z" fill="#FF7010"/>
<path d="M68.6896 37.2381C70.293 37.1552 71.9196 37.1612 73.538 37.2552C72.3139 35.2415 72.1577 32.7143 73.2239 30.5142C73.7036 29.5242 74.3985 28.6732 75.2499 28.0121C73.1113 27.008 70.6783 26.3379 68.0857 26.0928C64.577 28.9811 64.9069 34.7692 68.6896 37.2381Z" fill="#FF7010"/>
</g>
<path d="M50.0889 78.2988C52.7871 78.2988 54.791 76.7959 55.2129 74.4668H53.6045C53.2002 75.9346 51.8555 76.8398 50.0889 76.8398C47.6455 76.8398 46.1162 74.8447 46.1162 71.6631C46.1162 68.4814 47.6455 66.4775 50.0801 66.4775C51.8291 66.4775 53.1826 67.5059 53.6045 69.1406H55.2129C54.835 66.6973 52.752 65.0186 50.0801 65.0186C46.6348 65.0186 44.4902 67.5674 44.4902 71.6631C44.4902 75.75 46.6436 78.2988 50.0889 78.2988ZM58.4824 81.4277C60.1611 81.4277 60.917 80.7773 61.7256 78.5801L65.4258 68.5254H63.8174L61.2246 76.3213H61.084L58.4824 68.5254H56.8477L60.3545 78.0088L60.1787 78.5713C59.7832 79.7139 59.3086 80.127 58.4385 80.127C58.2275 80.127 57.9902 80.1182 57.8057 80.083V81.375C58.0166 81.4102 58.2803 81.4277 58.4824 81.4277ZM67.6143 78H79.3213V68.5254H77.8096V76.7344H74.2236V68.5254H72.7119V76.7344H69.126V68.5254H67.6143V78ZM83.8389 78L88.5586 70.9336H88.6992V78H90.2109V68.5254H88.6992L83.9795 75.5918H83.8389V68.5254H82.3271V78H83.8389Z" fill="#191919"/>
<defs>
<clipPath id="clip0_19304_5381">
<rect width="32" height="32" fill="white" transform="translate(51.5 20)"/>
</clipPath>
</defs>
</svg>
