<svg width="135" height="104" viewBox="0 0 135 104" fill="none" xmlns="http://www.w3.org/2000/svg">
<rect x="0.5" y="0.5" width="134" height="103" rx="11.5" fill="white" stroke="#F0F0F0"/>
<path d="M60.565 20C60.2696 20 60.049 20.2384 60.0317 20.5333V28.6281C60.5679 28.8216 60.9838 29.2942 61.0775 29.8792C61.0813 29.8995 61.2941 31.0933 62.165 32.35V20.5333C62.165 20.2379 61.9272 20 61.6317 20H60.565ZM73.365 20C73.0696 20 72.849 20.2384 72.8317 20.5333V32.3448C73.708 31.078 73.9223 29.8687 73.9223 29.8687C74.0193 29.2892 74.4326 28.8208 74.965 28.6281V20.5333C74.965 20.2379 74.7272 20 74.4317 20H73.365ZM63.765 22.1334C63.4696 22.1334 63.2317 22.3712 63.2317 22.6666V33.5511C63.7778 34.0255 64.4585 34.4281 65.365 34.6729V22.6666C65.365 22.3712 65.1272 22.1334 64.8317 22.1334H63.765ZM70.165 22.1334C69.8696 22.1334 69.6317 22.3712 69.6317 22.6666V34.6729C70.5385 34.4277 71.2191 34.024 71.765 33.549V22.6666C71.765 22.3712 71.5272 22.1334 71.2317 22.1334H70.165ZM57.365 24.2667C57.0696 24.2667 56.8317 24.5045 56.8317 24.8V28.5323H58.965V24.8C58.965 24.5045 58.7272 24.2667 58.4317 24.2667H57.365ZM66.965 24.2667C66.6696 24.2667 66.4317 24.5045 66.4317 24.8V34.875C66.7626 34.9125 67.1169 34.9333 67.4973 34.9333C67.8789 34.9333 68.2332 34.9127 68.565 34.875V24.8C68.565 24.5045 68.3272 24.2667 68.0317 24.2667H66.965ZM76.565 24.2667C76.2696 24.2667 76.0317 24.5045 76.0317 24.8V28.5323H78.165V24.8C78.165 24.5045 77.9272 24.2667 77.6317 24.2667H76.565ZM54.6984 29.599C54.3772 29.6001 54.1299 29.8826 54.1713 30.201L56.8369 50.4646C56.9312 51.2584 57.551 52 58.4307 52H76.565C77.4425 52 78.0618 51.2601 78.1588 50.4688L80.8286 30.201C80.8701 29.8809 80.6201 29.5976 80.2973 29.599H75.4984C75.2374 29.6003 75.0157 29.7902 74.9744 30.0479C74.9744 30.0479 74.7222 31.5286 73.6629 33.0239C72.6037 34.5193 70.8009 36 67.4984 36C64.1958 36 62.3919 34.5193 61.3327 33.0239C60.2735 31.5286 60.0254 30.0479 60.0254 30.0479C59.9839 29.7891 59.7605 29.5988 59.4984 29.599H54.6984ZM67.4984 39.7344C69.8485 39.7344 71.765 41.6478 71.765 43.9979C71.765 46.348 69.8485 48.2656 67.4984 48.2656C65.1482 48.2656 63.2296 46.348 63.2296 43.9979C63.2296 41.6478 65.1482 39.7344 67.4984 39.7344Z" fill="#FF7010"/>
<path d="M35.0957 72.2256H36.8799C38.7959 72.2256 39.8857 73.1133 39.8857 74.5371C39.8857 75.9082 38.7256 76.8926 36.9414 76.8926C35.1836 76.8926 33.9883 76.0225 33.8477 74.6953H32.3184C32.4326 76.8574 34.2783 78.2988 36.959 78.2988C39.5166 78.2988 41.5117 76.6729 41.5117 74.5811C41.5117 72.7617 40.3164 71.6279 38.6992 71.4609V71.3203C40.0527 70.9863 40.9668 69.791 40.9668 68.4111C40.9668 66.4336 39.2793 65.0186 36.8975 65.0186C34.375 65.0186 32.7314 66.3721 32.5732 68.5693H34.1113C34.2432 67.2246 35.2715 66.4248 36.8359 66.4248C38.4355 66.4248 39.3584 67.2773 39.3584 68.5518C39.3584 69.8789 38.3037 70.8193 36.8096 70.8193H35.0957V72.2256ZM46.9082 76.8398C45.8096 76.8398 44.9922 76.2773 44.9922 75.3105C44.9922 74.3613 45.625 73.8604 47.0664 73.7637L49.6152 73.5967V74.4668C49.6152 75.8203 48.4639 76.8398 46.9082 76.8398ZM46.627 78.167C47.8926 78.167 48.9297 77.6133 49.5449 76.6025H49.6855V78H51.127V71.5137C51.127 69.5449 49.835 68.3584 47.5234 68.3584C45.502 68.3584 44.0078 69.3604 43.8057 70.8809H45.335C45.5459 70.1338 46.3369 69.7031 47.4707 69.7031C48.8857 69.7031 49.6152 70.3447 49.6152 71.5137V72.375L46.8818 72.542C44.6758 72.6738 43.4277 73.6494 43.4277 75.3457C43.4277 77.0771 44.79 78.167 46.627 78.167ZM56.0137 73.6846L59.8105 78H61.7705L57.2617 72.9902L61.6035 68.5254H59.7666L56.0137 72.4893H55.6006V68.5254H54.0889V78H55.6006V73.6846H56.0137ZM64.3457 81.4277C66.0244 81.4277 66.7803 80.7773 67.5889 78.5801L71.2891 68.5254H69.6807L67.0879 76.3213H66.9473L64.3457 68.5254H62.7109L66.2178 78.0088L66.042 78.5713C65.6465 79.7139 65.1719 80.127 64.3018 80.127C64.0908 80.127 63.8535 80.1182 63.6689 80.083V81.375C63.8799 81.4102 64.1436 81.4277 64.3457 81.4277ZM80.9746 71.4258C80.7109 69.7383 79.3047 68.3584 77.002 68.3584C74.3477 68.3584 72.6602 70.2744 72.6602 73.2275C72.6602 76.2422 74.3564 78.167 77.0107 78.167C79.2871 78.167 80.7021 76.8838 80.9746 75.1436H79.4453C79.1641 76.2158 78.2764 76.8047 77.002 76.8047C75.3145 76.8047 74.2246 75.416 74.2246 73.2275C74.2246 71.083 75.2969 69.7207 77.002 69.7207C78.3643 69.7207 79.1992 70.4854 79.4453 71.4258H80.9746ZM85.2988 73.6846L89.0957 78H91.0557L86.5469 72.9902L90.8887 68.5254H89.0518L85.2988 72.4893H84.8857V68.5254H83.374V78H84.8857V73.6846H85.2988ZM94.6768 78L99.3965 70.9336H99.5371V78H101.049V68.5254H99.5371L94.8174 75.5918H94.6768V68.5254H93.165V78H94.6768Z" fill="#191919"/>
</svg>
